<mxfile host="app.diagrams.net" modified="2023-04-06T19:41:14.257Z" agent="Mozilla/5.0 (X11; Ubuntu; Linux x86_64; rv:109.0) Gecko/20100101 Firefox/112.0" etag="8nr9aEIGbDYalUmSRhjo" version="21.1.2" type="device" pages="8">
  <diagram name="ScanKey" id="IYrR1Kj5oTFVdGHLylHB">
    <mxGraphModel dx="1360" dy="795" grid="1" gridSize="10" guides="1" tooltips="1" connect="1" arrows="1" fold="1" page="1" pageScale="1" pageWidth="850" pageHeight="1100" math="0" shadow="0">
      <root>
        <mxCell id="0" />
        <mxCell id="1" parent="0" />
        <mxCell id="cdBKA0jRVLI20LQ2kuin-21" style="edgeStyle=orthogonalEdgeStyle;rounded=0;orthogonalLoop=1;jettySize=auto;html=1;exitX=1;exitY=0.3;exitDx=0;exitDy=0;exitPerimeter=0;entryX=0;entryY=0.5;entryDx=0;entryDy=0;" parent="1" source="cdBKA0jRVLI20LQ2kuin-1" target="cdBKA0jRVLI20LQ2kuin-17" edge="1">
          <mxGeometry relative="1" as="geometry">
            <mxPoint x="280" y="300" as="targetPoint" />
          </mxGeometry>
        </mxCell>
        <mxCell id="cdBKA0jRVLI20LQ2kuin-1" value="strobe_new" style="verticalLabelPosition=middle;shadow=0;dashed=0;align=center;html=1;verticalAlign=middle;shape=mxgraph.electrical.logic_gates.d_type_rs_flip-flop;labelPosition=center;" parent="1" vertex="1">
          <mxGeometry x="130" y="270" width="100" height="100" as="geometry" />
        </mxCell>
        <mxCell id="cdBKA0jRVLI20LQ2kuin-2" value="scankey" style="whiteSpace=wrap;html=1;aspect=fixed;" parent="1" vertex="1">
          <mxGeometry width="80" height="80" as="geometry" />
        </mxCell>
        <mxCell id="cdBKA0jRVLI20LQ2kuin-4" value="" style="endArrow=classic;html=1;rounded=1;" parent="1" edge="1">
          <mxGeometry width="50" height="50" relative="1" as="geometry">
            <mxPoint x="130" y="390" as="sourcePoint" />
            <mxPoint x="130" y="340" as="targetPoint" />
          </mxGeometry>
        </mxCell>
        <mxCell id="cdBKA0jRVLI20LQ2kuin-6" value="&lt;div&gt;clk&lt;/div&gt;" style="text;html=1;align=center;verticalAlign=middle;resizable=0;points=[];autosize=1;strokeColor=none;fillColor=none;" parent="1" vertex="1">
          <mxGeometry x="120" y="380" width="40" height="30" as="geometry" />
        </mxCell>
        <mxCell id="cdBKA0jRVLI20LQ2kuin-8" value="rst" style="text;html=1;align=center;verticalAlign=middle;resizable=0;points=[];autosize=1;strokeColor=none;fillColor=none;" parent="1" vertex="1">
          <mxGeometry x="160" y="405" width="40" height="30" as="geometry" />
        </mxCell>
        <mxCell id="cdBKA0jRVLI20LQ2kuin-9" value="" style="endArrow=classic;html=1;rounded=0;" parent="1" edge="1">
          <mxGeometry width="50" height="50" relative="1" as="geometry">
            <mxPoint x="180" y="400" as="sourcePoint" />
            <mxPoint x="180" y="370" as="targetPoint" />
          </mxGeometry>
        </mxCell>
        <mxCell id="cdBKA0jRVLI20LQ2kuin-11" value="" style="endArrow=classic;html=1;rounded=0;" parent="1" edge="1">
          <mxGeometry width="50" height="50" relative="1" as="geometry">
            <mxPoint x="275" y="230" as="sourcePoint" />
            <mxPoint x="275" y="160" as="targetPoint" />
          </mxGeometry>
        </mxCell>
        <mxCell id="cdBKA0jRVLI20LQ2kuin-13" value="strobe = strobe_new[1]" style="rounded=0;whiteSpace=wrap;html=1;" parent="1" vertex="1">
          <mxGeometry x="210" y="90" width="125" height="70" as="geometry" />
        </mxCell>
        <mxCell id="cdBKA0jRVLI20LQ2kuin-23" style="edgeStyle=orthogonalEdgeStyle;rounded=0;orthogonalLoop=1;jettySize=auto;html=1;exitX=1;exitY=0.5;exitDx=0;exitDy=0;entryX=0;entryY=0.3;entryDx=0;entryDy=0;entryPerimeter=0;" parent="1" source="cdBKA0jRVLI20LQ2kuin-17" target="cdBKA0jRVLI20LQ2kuin-1" edge="1">
          <mxGeometry relative="1" as="geometry">
            <mxPoint x="800" y="200" as="targetPoint" />
            <Array as="points">
              <mxPoint x="770" y="305" />
              <mxPoint x="770" y="230" />
              <mxPoint x="130" y="230" />
            </Array>
          </mxGeometry>
        </mxCell>
        <mxCell id="cdBKA0jRVLI20LQ2kuin-17" value="if (rst == 1&#39;b1)&lt;br&gt;&amp;nbsp;&amp;nbsp; strobe_new &amp;lt;= 2&#39;b00;&lt;br&gt;else&lt;br&gt;&amp;nbsp;&amp;nbsp; strobe_new &amp;lt;= (strobe_new &amp;lt;&amp;lt; 1) | {1&#39;b0, strobe_input};" style="rounded=0;whiteSpace=wrap;html=1;align=left;" parent="1" vertex="1">
          <mxGeometry x="425" y="265" width="320" height="70" as="geometry" />
        </mxCell>
        <mxCell id="cdBKA0jRVLI20LQ2kuin-24" value="" style="endArrow=none;html=1;rounded=0;" parent="1" edge="1">
          <mxGeometry width="50" height="50" relative="1" as="geometry">
            <mxPoint x="220" y="320" as="sourcePoint" />
            <mxPoint x="270" y="270" as="targetPoint" />
          </mxGeometry>
        </mxCell>
        <mxCell id="cdBKA0jRVLI20LQ2kuin-27" value="2" style="text;html=1;align=center;verticalAlign=middle;resizable=0;points=[];autosize=1;strokeColor=none;fillColor=none;" parent="1" vertex="1">
          <mxGeometry x="225" y="295" width="30" height="30" as="geometry" />
        </mxCell>
        <mxCell id="cdBKA0jRVLI20LQ2kuin-28" value="out" style="verticalLabelPosition=middle;shadow=0;dashed=0;align=center;html=1;verticalAlign=middle;shape=mxgraph.electrical.logic_gates.d_type_rs_flip-flop;labelPosition=center;" parent="1" vertex="1">
          <mxGeometry x="130" y="480" width="100" height="100" as="geometry" />
        </mxCell>
        <mxCell id="cdBKA0jRVLI20LQ2kuin-29" value="" style="endArrow=classic;html=1;rounded=0;" parent="1" edge="1">
          <mxGeometry width="50" height="50" relative="1" as="geometry">
            <mxPoint x="80" y="550" as="sourcePoint" />
            <mxPoint x="130" y="550" as="targetPoint" />
          </mxGeometry>
        </mxCell>
        <mxCell id="cdBKA0jRVLI20LQ2kuin-30" value="clk" style="text;html=1;align=center;verticalAlign=middle;resizable=0;points=[];autosize=1;strokeColor=none;fillColor=none;" parent="1" vertex="1">
          <mxGeometry x="60" y="545" width="40" height="30" as="geometry" />
        </mxCell>
        <mxCell id="cdBKA0jRVLI20LQ2kuin-31" value="" style="endArrow=classic;html=1;rounded=0;" parent="1" edge="1">
          <mxGeometry width="50" height="50" relative="1" as="geometry">
            <mxPoint x="180" y="620" as="sourcePoint" />
            <mxPoint x="180" y="580" as="targetPoint" />
          </mxGeometry>
        </mxCell>
        <mxCell id="cdBKA0jRVLI20LQ2kuin-32" value="rst" style="text;html=1;align=center;verticalAlign=middle;resizable=0;points=[];autosize=1;strokeColor=none;fillColor=none;" parent="1" vertex="1">
          <mxGeometry x="160" y="625" width="40" height="30" as="geometry" />
        </mxCell>
        <mxCell id="cdBKA0jRVLI20LQ2kuin-33" value="" style="endArrow=classic;html=1;rounded=0;" parent="1" edge="1">
          <mxGeometry width="50" height="50" relative="1" as="geometry">
            <mxPoint x="230" y="510" as="sourcePoint" />
            <mxPoint x="290" y="510" as="targetPoint" />
          </mxGeometry>
        </mxCell>
        <mxCell id="cdBKA0jRVLI20LQ2kuin-35" value="out[4] = |(in[19:16]);&lt;br&gt;out[3] = |in[15:8];&lt;br&gt;out[2] = |in[7:4] | |in[15:1strob2];&lt;br&gt;out[1] = in[2] | in[3] | in[6] | in[7] | in[10] | in[11] | in[14] | in[15] | in[18] | in[19];&lt;br&gt;out[0] = in[1] | in[3] | in[5] | in[7] | in[9] | in[11] | in[13] | in[15] | in[17] | in[19];" style="rounded=0;whiteSpace=wrap;html=1;align=left;" parent="1" vertex="1">
          <mxGeometry x="290" y="490" width="410" height="80" as="geometry" />
        </mxCell>
        <mxCell id="cdBKA0jRVLI20LQ2kuin-36" value="" style="endArrow=classic;html=1;rounded=0;entryX=0;entryY=0.3;entryDx=0;entryDy=0;entryPerimeter=0;" parent="1" target="cdBKA0jRVLI20LQ2kuin-28" edge="1">
          <mxGeometry width="50" height="50" relative="1" as="geometry">
            <mxPoint x="700" y="530" as="sourcePoint" />
            <mxPoint x="750" y="480" as="targetPoint" />
            <Array as="points">
              <mxPoint x="750" y="530" />
              <mxPoint x="750" y="450" />
              <mxPoint x="130" y="450" />
            </Array>
          </mxGeometry>
        </mxCell>
        <mxCell id="cdBKA0jRVLI20LQ2kuin-37" value="" style="endArrow=none;html=1;rounded=0;" parent="1" edge="1">
          <mxGeometry width="50" height="50" relative="1" as="geometry">
            <mxPoint x="220" y="530" as="sourcePoint" />
            <mxPoint x="270" y="480" as="targetPoint" />
          </mxGeometry>
        </mxCell>
        <mxCell id="cdBKA0jRVLI20LQ2kuin-38" value="" style="endArrow=none;html=1;rounded=0;" parent="1" edge="1">
          <mxGeometry width="50" height="50" relative="1" as="geometry">
            <mxPoint x="710" y="545" as="sourcePoint" />
            <mxPoint x="750" y="505" as="targetPoint" />
          </mxGeometry>
        </mxCell>
        <mxCell id="cdBKA0jRVLI20LQ2kuin-39" value="5" style="text;html=1;align=center;verticalAlign=middle;resizable=0;points=[];autosize=1;strokeColor=none;fillColor=none;" parent="1" vertex="1">
          <mxGeometry x="720" y="535" width="30" height="30" as="geometry" />
        </mxCell>
        <mxCell id="cdBKA0jRVLI20LQ2kuin-40" value="5" style="text;html=1;align=center;verticalAlign=middle;resizable=0;points=[];autosize=1;strokeColor=none;fillColor=none;" parent="1" vertex="1">
          <mxGeometry x="235" y="505" width="30" height="30" as="geometry" />
        </mxCell>
      </root>
    </mxGraphModel>
  </diagram>
  <diagram id="0YekBfEAMakjV-BFxU8W" name="Clkdiv">
    <mxGraphModel dx="1360" dy="795" grid="1" gridSize="10" guides="1" tooltips="1" connect="1" arrows="1" fold="1" page="1" pageScale="1" pageWidth="850" pageHeight="1100" math="0" shadow="0">
      <root>
        <mxCell id="0" />
        <mxCell id="1" parent="0" />
        <mxCell id="TX3TgNIddecOUrxeShIp-1" value="&lt;div&gt;hzX&lt;/div&gt;&lt;div&gt;counter&lt;br&gt;&lt;/div&gt;" style="verticalLabelPosition=middle;shadow=0;dashed=0;align=center;html=1;verticalAlign=middle;shape=mxgraph.electrical.logic_gates.d_type_rs_flip-flop;labelPosition=center;" parent="1" vertex="1">
          <mxGeometry x="130" y="140" width="100" height="100" as="geometry" />
        </mxCell>
        <mxCell id="TX3TgNIddecOUrxeShIp-2" value="clkdiv" style="whiteSpace=wrap;html=1;aspect=fixed;" parent="1" vertex="1">
          <mxGeometry width="80" height="80" as="geometry" />
        </mxCell>
        <mxCell id="TX3TgNIddecOUrxeShIp-3" value="" style="endArrow=classic;html=1;rounded=0;" parent="1" edge="1">
          <mxGeometry width="50" height="50" relative="1" as="geometry">
            <mxPoint x="230" y="170" as="sourcePoint" />
            <mxPoint x="290" y="170" as="targetPoint" />
          </mxGeometry>
        </mxCell>
        <mxCell id="TX3TgNIddecOUrxeShIp-4" value="if (rst)&lt;br&gt;&amp;nbsp;&amp;nbsp;&amp;nbsp; counter &amp;lt;= 0;&lt;br&gt;&amp;nbsp;&amp;nbsp;&amp;nbsp; hzX &amp;lt;= 0;&lt;br&gt;else&lt;br&gt;&amp;nbsp;&amp;nbsp;&amp;nbsp; next_counter &amp;lt;= counter + 8&#39;b1;&lt;br&gt;&amp;nbsp;&amp;nbsp;&amp;nbsp; if (counter == lim)&lt;br&gt;&amp;nbsp;&amp;nbsp;&amp;nbsp;&amp;nbsp;&amp;nbsp;&amp;nbsp;&amp;nbsp; counter &amp;lt;= 0;&lt;br&gt;&amp;nbsp;&amp;nbsp;&amp;nbsp;&amp;nbsp;&amp;nbsp;&amp;nbsp;&amp;nbsp; hzX &amp;lt;= ~hzX;" style="rounded=0;whiteSpace=wrap;html=1;align=left;" parent="1" vertex="1">
          <mxGeometry x="290" y="150" width="290" height="150" as="geometry" />
        </mxCell>
        <mxCell id="TX3TgNIddecOUrxeShIp-5" value="" style="endArrow=none;html=1;rounded=0;" parent="1" edge="1">
          <mxGeometry width="50" height="50" relative="1" as="geometry">
            <mxPoint x="230" y="190" as="sourcePoint" />
            <mxPoint x="280" y="140" as="targetPoint" />
          </mxGeometry>
        </mxCell>
        <mxCell id="TX3TgNIddecOUrxeShIp-6" value="1" style="text;html=1;align=center;verticalAlign=middle;resizable=0;points=[];autosize=1;strokeColor=none;fillColor=none;" parent="1" vertex="1">
          <mxGeometry x="225" y="145" width="30" height="30" as="geometry" />
        </mxCell>
        <mxCell id="TX3TgNIddecOUrxeShIp-7" value="8" style="text;html=1;align=center;verticalAlign=middle;resizable=0;points=[];autosize=1;strokeColor=none;fillColor=none;" parent="1" vertex="1">
          <mxGeometry x="245" y="165" width="30" height="30" as="geometry" />
        </mxCell>
        <mxCell id="TX3TgNIddecOUrxeShIp-8" value="" style="endArrow=classic;html=1;rounded=0;entryX=0;entryY=0.3;entryDx=0;entryDy=0;entryPerimeter=0;" parent="1" target="TX3TgNIddecOUrxeShIp-1" edge="1">
          <mxGeometry width="50" height="50" relative="1" as="geometry">
            <mxPoint x="580" y="230" as="sourcePoint" />
            <mxPoint x="630" y="180" as="targetPoint" />
            <Array as="points">
              <mxPoint x="640" y="230" />
              <mxPoint x="640" y="100" />
              <mxPoint x="130" y="100" />
            </Array>
          </mxGeometry>
        </mxCell>
        <mxCell id="TX3TgNIddecOUrxeShIp-9" value="" style="endArrow=none;html=1;rounded=0;" parent="1" edge="1">
          <mxGeometry width="50" height="50" relative="1" as="geometry">
            <mxPoint x="590" y="250" as="sourcePoint" />
            <mxPoint x="640" y="200" as="targetPoint" />
          </mxGeometry>
        </mxCell>
        <mxCell id="TX3TgNIddecOUrxeShIp-10" value="8" style="text;html=1;align=center;verticalAlign=middle;resizable=0;points=[];autosize=1;strokeColor=none;fillColor=none;" parent="1" vertex="1">
          <mxGeometry x="595" y="225" width="30" height="30" as="geometry" />
        </mxCell>
        <mxCell id="TX3TgNIddecOUrxeShIp-11" value="1" style="text;html=1;align=center;verticalAlign=middle;resizable=0;points=[];autosize=1;strokeColor=none;fillColor=none;" parent="1" vertex="1">
          <mxGeometry x="590" y="210" width="30" height="30" as="geometry" />
        </mxCell>
        <mxCell id="TX3TgNIddecOUrxeShIp-12" value="" style="endArrow=classic;html=1;rounded=0;" parent="1" edge="1">
          <mxGeometry width="50" height="50" relative="1" as="geometry">
            <mxPoint x="180" y="270" as="sourcePoint" />
            <mxPoint x="180" y="240" as="targetPoint" />
          </mxGeometry>
        </mxCell>
        <mxCell id="TX3TgNIddecOUrxeShIp-13" value="rst" style="text;html=1;align=center;verticalAlign=middle;resizable=0;points=[];autosize=1;strokeColor=none;fillColor=none;" parent="1" vertex="1">
          <mxGeometry x="160" y="270" width="40" height="30" as="geometry" />
        </mxCell>
        <mxCell id="TX3TgNIddecOUrxeShIp-14" value="" style="endArrow=classic;html=1;rounded=0;" parent="1" edge="1">
          <mxGeometry width="50" height="50" relative="1" as="geometry">
            <mxPoint x="100" y="210" as="sourcePoint" />
            <mxPoint x="130" y="210" as="targetPoint" />
          </mxGeometry>
        </mxCell>
        <mxCell id="TX3TgNIddecOUrxeShIp-15" value="clk" style="text;html=1;align=center;verticalAlign=middle;resizable=0;points=[];autosize=1;strokeColor=none;fillColor=none;" parent="1" vertex="1">
          <mxGeometry x="80" y="205" width="40" height="30" as="geometry" />
        </mxCell>
        <mxCell id="TX3TgNIddecOUrxeShIp-16" value="counter" style="text;html=1;align=center;verticalAlign=middle;resizable=0;points=[];autosize=1;strokeColor=none;fillColor=none;" parent="1" vertex="1">
          <mxGeometry x="80" y="165" width="60" height="30" as="geometry" />
        </mxCell>
      </root>
    </mxGraphModel>
  </diagram>
  <diagram id="mA3E6A3DA5kwlwp3M_s9" name="Prience8to3">
    <mxGraphModel dx="1360" dy="795" grid="1" gridSize="10" guides="1" tooltips="1" connect="1" arrows="1" fold="1" page="1" pageScale="1" pageWidth="850" pageHeight="1100" math="0" shadow="0">
      <root>
        <mxCell id="0" />
        <mxCell id="1" parent="0" />
        <mxCell id="RlZYWX1HXNi8NvG_U70_-1" value="prienc8to3" style="whiteSpace=wrap;html=1;aspect=fixed;" parent="1" vertex="1">
          <mxGeometry width="80" height="80" as="geometry" />
        </mxCell>
        <mxCell id="RlZYWX1HXNi8NvG_U70_-2" value="&lt;div&gt;if in[7] = 1, out is 3&#39;d7&lt;/div&gt;&lt;div&gt;if in[6] = 1, out is 3&#39;d6&lt;/div&gt;&lt;div&gt;if in[5] = 1, out is 3&#39;d5&lt;/div&gt;&lt;div&gt;if in[4] = 1, out is 3&#39;d4&lt;/div&gt;&lt;div&gt;if in[3] = 1, out is 3&#39;d3&lt;/div&gt;&lt;div&gt;if in[2] = 1, out is 3&#39;d2&lt;/div&gt;&lt;div&gt;&lt;div&gt;if in[1] = 1, out is 3&#39;d1&lt;/div&gt;&lt;div&gt;if in[0] = 1, out is 3&#39;d0&lt;/div&gt;&lt;/div&gt;" style="whiteSpace=wrap;html=1;aspect=fixed;align=left;" parent="1" vertex="1">
          <mxGeometry x="213" y="100" width="175" height="175" as="geometry" />
        </mxCell>
        <mxCell id="RlZYWX1HXNi8NvG_U70_-3" value="" style="endArrow=classic;html=1;rounded=0;" parent="1" edge="1">
          <mxGeometry width="50" height="50" relative="1" as="geometry">
            <mxPoint x="135" y="190" as="sourcePoint" />
            <mxPoint x="215" y="190" as="targetPoint" />
          </mxGeometry>
        </mxCell>
        <mxCell id="RlZYWX1HXNi8NvG_U70_-4" value="" style="endArrow=classic;html=1;rounded=0;" parent="1" edge="1">
          <mxGeometry width="50" height="50" relative="1" as="geometry">
            <mxPoint x="385" y="190" as="sourcePoint" />
            <mxPoint x="475" y="190" as="targetPoint" />
          </mxGeometry>
        </mxCell>
        <mxCell id="RlZYWX1HXNi8NvG_U70_-5" value="out" style="text;html=1;align=center;verticalAlign=middle;resizable=0;points=[];autosize=1;strokeColor=none;fillColor=none;" parent="1" vertex="1">
          <mxGeometry x="475" y="185" width="40" height="30" as="geometry" />
        </mxCell>
        <mxCell id="RlZYWX1HXNi8NvG_U70_-6" value="in" style="text;html=1;align=center;verticalAlign=middle;resizable=0;points=[];autosize=1;strokeColor=none;fillColor=none;" parent="1" vertex="1">
          <mxGeometry x="100" y="175" width="30" height="30" as="geometry" />
        </mxCell>
        <mxCell id="RlZYWX1HXNi8NvG_U70_-7" value="" style="endArrow=none;html=1;rounded=0;" parent="1" edge="1">
          <mxGeometry width="50" height="50" relative="1" as="geometry">
            <mxPoint x="145" y="220" as="sourcePoint" />
            <mxPoint x="195" y="170" as="targetPoint" />
          </mxGeometry>
        </mxCell>
        <mxCell id="RlZYWX1HXNi8NvG_U70_-8" value="" style="endArrow=none;html=1;rounded=0;" parent="1" edge="1">
          <mxGeometry width="50" height="50" relative="1" as="geometry">
            <mxPoint x="415" y="210" as="sourcePoint" />
            <mxPoint x="465" y="160" as="targetPoint" />
          </mxGeometry>
        </mxCell>
        <mxCell id="RlZYWX1HXNi8NvG_U70_-9" value="3" style="text;html=1;align=center;verticalAlign=middle;resizable=0;points=[];autosize=1;strokeColor=none;fillColor=none;" parent="1" vertex="1">
          <mxGeometry x="430" y="185" width="30" height="30" as="geometry" />
        </mxCell>
        <mxCell id="RlZYWX1HXNi8NvG_U70_-10" value="8" style="text;html=1;align=center;verticalAlign=middle;resizable=0;points=[];autosize=1;strokeColor=none;fillColor=none;" parent="1" vertex="1">
          <mxGeometry x="160" y="185" width="30" height="30" as="geometry" />
        </mxCell>
      </root>
    </mxGraphModel>
  </diagram>
  <diagram id="SpOl654Fy60TbCHv0czY" name="Sequencer">
    <mxGraphModel dx="1360" dy="795" grid="1" gridSize="10" guides="1" tooltips="1" connect="1" arrows="1" fold="1" page="1" pageScale="1" pageWidth="850" pageHeight="1100" math="0" shadow="0">
      <root>
        <mxCell id="0" />
        <mxCell id="1" parent="0" />
        <mxCell id="BuZd-HlXa7H_hpg2lpT5-1" value="seq-out" style="verticalLabelPosition=middle;shadow=0;dashed=0;align=center;html=1;verticalAlign=middle;shape=mxgraph.electrical.logic_gates.d_type_rs_flip-flop;labelPosition=center;" parent="1" vertex="1">
          <mxGeometry x="150" y="180" width="100" height="100" as="geometry" />
        </mxCell>
        <mxCell id="BuZd-HlXa7H_hpg2lpT5-2" value="sequencer" style="whiteSpace=wrap;html=1;aspect=fixed;" parent="1" vertex="1">
          <mxGeometry width="80" height="80" as="geometry" />
        </mxCell>
        <mxCell id="xtzYdPDor8P0OM3wpwx9-1" value="" style="endArrow=classic;html=1;rounded=0;" parent="1" edge="1">
          <mxGeometry width="50" height="50" relative="1" as="geometry">
            <mxPoint x="250" y="210" as="sourcePoint" />
            <mxPoint x="300" y="210" as="targetPoint" />
          </mxGeometry>
        </mxCell>
        <mxCell id="xtzYdPDor8P0OM3wpwx9-2" value="" style="endArrow=none;html=1;rounded=0;" parent="1" edge="1">
          <mxGeometry width="50" height="50" relative="1" as="geometry">
            <mxPoint x="260" y="230" as="sourcePoint" />
            <mxPoint x="310" y="180" as="targetPoint" />
          </mxGeometry>
        </mxCell>
        <mxCell id="xtzYdPDor8P0OM3wpwx9-3" value="8" style="text;html=1;align=center;verticalAlign=middle;resizable=0;points=[];autosize=1;strokeColor=none;fillColor=none;" parent="1" vertex="1">
          <mxGeometry x="265" y="205" width="30" height="30" as="geometry" />
        </mxCell>
        <mxCell id="xtzYdPDor8P0OM3wpwx9-4" value="if (rst)&lt;br&gt;&amp;nbsp; seq = 8&#39;h80; &lt;br&gt;else if (srst)&lt;br&gt;&amp;nbsp; seq = 8&#39;h80;&lt;br&gt;else&lt;br&gt;&amp;nbsp; if (go_right)&lt;br&gt;&amp;nbsp;&amp;nbsp;&amp;nbsp; seq = {seq[0], seq[7:1]};&lt;br&gt;&amp;nbsp; else if (go_left)&lt;br&gt;&amp;nbsp;&amp;nbsp;&amp;nbsp; seq = {seq[6:0], seq[7]};&lt;br&gt;&amp;nbsp; else&lt;br&gt;&amp;nbsp;&amp;nbsp;&amp;nbsp; seq = seq;&lt;br&gt;seq_out &amp;lt;= seq;" style="rounded=0;whiteSpace=wrap;html=1;align=left;" parent="1" vertex="1">
          <mxGeometry x="300" y="160" width="210" height="180" as="geometry" />
        </mxCell>
        <mxCell id="if1eAAY3Da8s9yNB0GrL-1" value="" style="endArrow=classic;html=1;rounded=0;entryX=0;entryY=0.3;entryDx=0;entryDy=0;entryPerimeter=0;" parent="1" target="BuZd-HlXa7H_hpg2lpT5-1" edge="1">
          <mxGeometry width="50" height="50" relative="1" as="geometry">
            <mxPoint x="410" y="160" as="sourcePoint" />
            <mxPoint x="460" y="110" as="targetPoint" />
            <Array as="points">
              <mxPoint x="410" y="140" />
              <mxPoint x="150" y="140" />
            </Array>
          </mxGeometry>
        </mxCell>
        <mxCell id="if1eAAY3Da8s9yNB0GrL-2" value="" style="endArrow=classic;html=1;rounded=0;" parent="1" edge="1">
          <mxGeometry width="50" height="50" relative="1" as="geometry">
            <mxPoint x="200" y="310" as="sourcePoint" />
            <mxPoint x="200" y="280" as="targetPoint" />
          </mxGeometry>
        </mxCell>
        <mxCell id="if1eAAY3Da8s9yNB0GrL-3" value="rst" style="text;html=1;align=center;verticalAlign=middle;resizable=0;points=[];autosize=1;strokeColor=none;fillColor=none;" parent="1" vertex="1">
          <mxGeometry x="180" y="305" width="40" height="30" as="geometry" />
        </mxCell>
        <mxCell id="if1eAAY3Da8s9yNB0GrL-4" value="" style="endArrow=classic;html=1;rounded=0;" parent="1" edge="1">
          <mxGeometry width="50" height="50" relative="1" as="geometry">
            <mxPoint x="120" y="250" as="sourcePoint" />
            <mxPoint x="150" y="250" as="targetPoint" />
          </mxGeometry>
        </mxCell>
        <mxCell id="if1eAAY3Da8s9yNB0GrL-5" value="clk" style="text;html=1;align=center;verticalAlign=middle;resizable=0;points=[];autosize=1;strokeColor=none;fillColor=none;" parent="1" vertex="1">
          <mxGeometry x="100" y="255" width="40" height="30" as="geometry" />
        </mxCell>
        <mxCell id="if1eAAY3Da8s9yNB0GrL-6" value="" style="endArrow=none;html=1;rounded=0;" parent="1" edge="1">
          <mxGeometry width="50" height="50" relative="1" as="geometry">
            <mxPoint x="250" y="160" as="sourcePoint" />
            <mxPoint x="300" y="110" as="targetPoint" />
          </mxGeometry>
        </mxCell>
        <mxCell id="if1eAAY3Da8s9yNB0GrL-7" value="8" style="text;html=1;align=center;verticalAlign=middle;resizable=0;points=[];autosize=1;strokeColor=none;fillColor=none;" parent="1" vertex="1">
          <mxGeometry x="255" y="135" width="30" height="30" as="geometry" />
        </mxCell>
        <mxCell id="3cmZq7o29tf6jsjAdpJG-2" value="always_ff @(posedge clk, posedge rst)" style="shape=callout;whiteSpace=wrap;html=1;perimeter=calloutPerimeter;" vertex="1" parent="1">
          <mxGeometry x="440" y="80" width="210" height="80" as="geometry" />
        </mxCell>
      </root>
    </mxGraphModel>
  </diagram>
  <diagram id="gktlRkbe1zjE_vl7Sq3N" name="SequenceEditor">
    <mxGraphModel dx="1360" dy="795" grid="1" gridSize="10" guides="1" tooltips="1" connect="1" arrows="1" fold="1" page="1" pageScale="1" pageWidth="850" pageHeight="1100" math="0" shadow="0">
      <root>
        <mxCell id="0" />
        <mxCell id="1" parent="0" />
        <mxCell id="SHDCBQ5-KKh3-QUxJ4F7-1" value="sequence_editor" style="whiteSpace=wrap;html=1;aspect=fixed;" parent="1" vertex="1">
          <mxGeometry width="100" height="100" as="geometry" />
        </mxCell>
        <mxCell id="SHDCBQ5-KKh3-QUxJ4F7-3" style="edgeStyle=orthogonalEdgeStyle;rounded=0;orthogonalLoop=1;jettySize=auto;html=1;exitX=1;exitY=0.3;exitDx=0;exitDy=0;exitPerimeter=0;" parent="1" source="SHDCBQ5-KKh3-QUxJ4F7-2" edge="1">
          <mxGeometry relative="1" as="geometry">
            <mxPoint x="330" y="216" as="targetPoint" />
          </mxGeometry>
        </mxCell>
        <mxCell id="SHDCBQ5-KKh3-QUxJ4F7-2" value="&lt;div&gt;seq_smpl_1&lt;/div&gt;&lt;div&gt;...&lt;/div&gt;&lt;div&gt;seq_smpl_8&lt;br&gt;&lt;/div&gt;" style="verticalLabelPosition=middle;shadow=0;dashed=0;align=center;html=1;verticalAlign=middle;shape=mxgraph.electrical.logic_gates.d_type_rs_flip-flop;labelPosition=center;" parent="1" vertex="1">
          <mxGeometry x="150" y="180" width="110" height="120" as="geometry" />
        </mxCell>
        <mxCell id="SHDCBQ5-KKh3-QUxJ4F7-6" style="edgeStyle=orthogonalEdgeStyle;rounded=0;orthogonalLoop=1;jettySize=auto;html=1;" parent="1" source="SHDCBQ5-KKh3-QUxJ4F7-4" target="SHDCBQ5-KKh3-QUxJ4F7-2" edge="1">
          <mxGeometry relative="1" as="geometry" />
        </mxCell>
        <mxCell id="SHDCBQ5-KKh3-QUxJ4F7-4" value="rst" style="text;html=1;align=center;verticalAlign=middle;resizable=0;points=[];autosize=1;strokeColor=none;fillColor=none;" parent="1" vertex="1">
          <mxGeometry x="185" y="320" width="40" height="30" as="geometry" />
        </mxCell>
        <mxCell id="SHDCBQ5-KKh3-QUxJ4F7-8" style="edgeStyle=orthogonalEdgeStyle;rounded=0;orthogonalLoop=1;jettySize=auto;html=1;entryX=0;entryY=0.7;entryDx=0;entryDy=0;entryPerimeter=0;" parent="1" source="SHDCBQ5-KKh3-QUxJ4F7-7" target="SHDCBQ5-KKh3-QUxJ4F7-2" edge="1">
          <mxGeometry relative="1" as="geometry" />
        </mxCell>
        <mxCell id="SHDCBQ5-KKh3-QUxJ4F7-7" value="clk" style="text;html=1;align=center;verticalAlign=middle;resizable=0;points=[];autosize=1;strokeColor=none;fillColor=none;" parent="1" vertex="1">
          <mxGeometry x="80" y="250" width="40" height="30" as="geometry" />
        </mxCell>
        <mxCell id="SHDCBQ5-KKh3-QUxJ4F7-9" value="" style="endArrow=none;html=1;rounded=0;" parent="1" edge="1">
          <mxGeometry width="50" height="50" relative="1" as="geometry">
            <mxPoint x="250" y="240" as="sourcePoint" />
            <mxPoint x="300" y="190" as="targetPoint" />
          </mxGeometry>
        </mxCell>
        <mxCell id="SHDCBQ5-KKh3-QUxJ4F7-10" value="32" style="text;html=1;align=center;verticalAlign=middle;resizable=0;points=[];autosize=1;strokeColor=none;fillColor=none;" parent="1" vertex="1">
          <mxGeometry x="260" y="215" width="40" height="30" as="geometry" />
        </mxCell>
        <mxCell id="SHDCBQ5-KKh3-QUxJ4F7-11" value="" style="endArrow=classic;html=1;rounded=0;" parent="1" edge="1">
          <mxGeometry width="50" height="50" relative="1" as="geometry">
            <mxPoint x="530" y="190" as="sourcePoint" />
            <mxPoint x="150" y="220" as="targetPoint" />
            <Array as="points">
              <mxPoint x="530" y="130" />
              <mxPoint x="150" y="130" />
            </Array>
          </mxGeometry>
        </mxCell>
        <mxCell id="SHDCBQ5-KKh3-QUxJ4F7-12" value="if (rst)&lt;br&gt;&amp;nbsp; seq_smpl_8 = 4&#39;b0;&lt;br&gt;&amp;nbsp; seq_smpl_7 = 4&#39;b0;&lt;br&gt;&amp;nbsp; seq_smpl_6 = 4&#39;b0;&lt;br&gt;&amp;nbsp; seq_smpl_5 = 4&#39;b0;&lt;br&gt;&amp;nbsp; seq_smpl_4 = 4&#39;b0;&lt;br&gt;&amp;nbsp; seq_smpl_3 = 4&#39;b0;&lt;br&gt;&amp;nbsp; seq_smpl_2 = 4&#39;b0;&lt;br&gt;&amp;nbsp; seq_smpl_1 = 4&#39;b0;&lt;br&gt;else begin&lt;br&gt;&amp;nbsp; if (mode == 2&#39;d0) &lt;br&gt;&amp;nbsp;&amp;nbsp;&amp;nbsp; case (set_time_idx)&lt;br&gt;&amp;nbsp;&amp;nbsp;&amp;nbsp;&amp;nbsp;&amp;nbsp;&amp;nbsp;&amp;nbsp; 0: seq_smpl_8 = (seq_smpl_8 ^ tgl_play_smpl);&lt;br&gt;&amp;nbsp;&amp;nbsp;&amp;nbsp;&amp;nbsp;&amp;nbsp;&amp;nbsp;&amp;nbsp; 1: seq_smpl_7 = (seq_smpl_7 ^ tgl_play_smpl);&lt;br&gt;&amp;nbsp;&amp;nbsp;&amp;nbsp;&amp;nbsp;&amp;nbsp;&amp;nbsp;&amp;nbsp; 2: seq_smpl_6 = (seq_smpl_6 ^ tgl_play_smpl);&lt;br&gt;&amp;nbsp;&amp;nbsp;&amp;nbsp;&amp;nbsp;&amp;nbsp;&amp;nbsp;&amp;nbsp; 3: seq_smpl_5 = (seq_smpl_5 ^ tgl_play_smpl);&lt;br&gt;&amp;nbsp;&amp;nbsp;&amp;nbsp;&amp;nbsp;&amp;nbsp;&amp;nbsp;&amp;nbsp; 4: seq_smpl_4 = (seq_smpl_4 ^ tgl_play_smpl);&lt;br&gt;&amp;nbsp;&amp;nbsp;&amp;nbsp;&amp;nbsp;&amp;nbsp;&amp;nbsp;&amp;nbsp; 5: seq_smpl_3 = (seq_smpl_3 ^ tgl_play_smpl);&lt;br&gt;&amp;nbsp;&amp;nbsp;&amp;nbsp;&amp;nbsp;&amp;nbsp;&amp;nbsp;&amp;nbsp; 6: seq_smpl_2 = (seq_smpl_2 ^ tgl_play_smpl);&lt;br&gt;&lt;div&gt;&amp;nbsp;&amp;nbsp;&amp;nbsp;&amp;nbsp;&amp;nbsp;&amp;nbsp;&amp;nbsp; 7: seq_smpl_1 = (seq_smpl_1 ^ tgl_play_smpl);&lt;/div&gt;&lt;div&gt;&lt;span style=&quot;white-space: pre;&quot;&gt;	&lt;/span&gt;default: next_seq_smpl = seq_smpl&lt;br&gt;&lt;/div&gt;&amp;nbsp;&amp;nbsp;&amp;nbsp; endcase" style="rounded=0;whiteSpace=wrap;html=1;align=left;" parent="1" vertex="1">
          <mxGeometry x="330" y="190" width="340" height="320" as="geometry" />
        </mxCell>
        <mxCell id="SHDCBQ5-KKh3-QUxJ4F7-13" value="" style="endArrow=none;html=1;rounded=0;" parent="1" edge="1">
          <mxGeometry width="50" height="50" relative="1" as="geometry">
            <mxPoint x="380" y="150" as="sourcePoint" />
            <mxPoint x="430" y="100" as="targetPoint" />
          </mxGeometry>
        </mxCell>
        <mxCell id="SHDCBQ5-KKh3-QUxJ4F7-14" value="32" style="text;html=1;align=center;verticalAlign=middle;resizable=0;points=[];autosize=1;strokeColor=none;fillColor=none;" parent="1" vertex="1">
          <mxGeometry x="390" y="125" width="40" height="30" as="geometry" />
        </mxCell>
        <mxCell id="9A92yt77hhj7HXCllJ4g-1" value="always @ (posedge clk, posedge rst)" style="shape=callout;whiteSpace=wrap;html=1;perimeter=calloutPerimeter;" vertex="1" parent="1">
          <mxGeometry x="550" y="90" width="160" height="100" as="geometry" />
        </mxCell>
      </root>
    </mxGraphModel>
  </diagram>
  <diagram id="0JLQmDKhWNTJNHBGpobg" name="Pwm">
    <mxGraphModel dx="1360" dy="795" grid="1" gridSize="10" guides="1" tooltips="1" connect="1" arrows="1" fold="1" page="1" pageScale="1" pageWidth="850" pageHeight="1100" math="0" shadow="0">
      <root>
        <mxCell id="0" />
        <mxCell id="1" parent="0" />
        <mxCell id="nNjAcnSjkrZPtuR4dmRM-1" value="pwm" style="whiteSpace=wrap;html=1;aspect=fixed;" parent="1" vertex="1">
          <mxGeometry width="80" height="80" as="geometry" />
        </mxCell>
        <mxCell id="nNjAcnSjkrZPtuR4dmRM-2" value="counter&lt;br&gt;pwm_out" style="verticalLabelPosition=middle;shadow=0;dashed=0;align=center;html=1;verticalAlign=middle;shape=mxgraph.electrical.logic_gates.d_type_rs_flip-flop;labelPosition=center;" parent="1" vertex="1">
          <mxGeometry x="160" y="220" width="100" height="100" as="geometry" />
        </mxCell>
        <mxCell id="nNjAcnSjkrZPtuR4dmRM-3" value="" style="endArrow=classic;html=1;rounded=0;" parent="1" edge="1">
          <mxGeometry width="50" height="50" relative="1" as="geometry">
            <mxPoint x="210" y="360" as="sourcePoint" />
            <mxPoint x="210" y="320" as="targetPoint" />
          </mxGeometry>
        </mxCell>
        <mxCell id="nNjAcnSjkrZPtuR4dmRM-4" value="rst" style="text;html=1;align=center;verticalAlign=middle;resizable=0;points=[];autosize=1;strokeColor=none;fillColor=none;" parent="1" vertex="1">
          <mxGeometry x="190" y="355" width="40" height="30" as="geometry" />
        </mxCell>
        <mxCell id="nNjAcnSjkrZPtuR4dmRM-5" value="" style="endArrow=classic;html=1;rounded=0;" parent="1" edge="1">
          <mxGeometry width="50" height="50" relative="1" as="geometry">
            <mxPoint x="120" y="290" as="sourcePoint" />
            <mxPoint x="160" y="290" as="targetPoint" />
          </mxGeometry>
        </mxCell>
        <mxCell id="fNxvs0sUdNlz_mXDDitk-1" value="clk" style="text;html=1;align=center;verticalAlign=middle;resizable=0;points=[];autosize=1;strokeColor=none;fillColor=none;" parent="1" vertex="1">
          <mxGeometry x="100" y="285" width="40" height="30" as="geometry" />
        </mxCell>
        <mxCell id="fNxvs0sUdNlz_mXDDitk-2" value="" style="endArrow=classic;html=1;rounded=0;entryX=0;entryY=0.5;entryDx=0;entryDy=0;" parent="1" target="fNxvs0sUdNlz_mXDDitk-5" edge="1">
          <mxGeometry width="50" height="50" relative="1" as="geometry">
            <mxPoint x="260" y="250" as="sourcePoint" />
            <mxPoint x="310" y="250" as="targetPoint" />
          </mxGeometry>
        </mxCell>
        <mxCell id="fNxvs0sUdNlz_mXDDitk-5" value="if (rst)&lt;br&gt;&amp;nbsp;&amp;nbsp;&amp;nbsp;&amp;nbsp;&amp;nbsp; counter &amp;lt;= 8&#39;b0;&lt;br&gt;else if(enable)&lt;br&gt;&amp;nbsp;&amp;nbsp;&amp;nbsp;&amp;nbsp;&amp;nbsp; next_counter &amp;lt;= counter + 8&#39;b1;&lt;br&gt;&amp;nbsp;&amp;nbsp;&amp;nbsp;&amp;nbsp;&amp;nbsp; if (counter &amp;lt;= duty_cycle)&lt;br&gt;&amp;nbsp;&amp;nbsp;&amp;nbsp;&amp;nbsp; &amp;nbsp;&amp;nbsp;&amp;nbsp; &amp;nbsp;pwm_out &amp;lt;= 1;&lt;br&gt;&amp;nbsp;&amp;nbsp;&amp;nbsp;&amp;nbsp;&amp;nbsp; else&lt;br&gt;&amp;nbsp;&amp;nbsp;&amp;nbsp;&amp;nbsp; &amp;nbsp;&amp;nbsp;&amp;nbsp; &amp;nbsp;pwm_out &amp;lt;= 0;&lt;br&gt;&amp;nbsp;&amp;nbsp;&amp;nbsp;&amp;nbsp;&amp;nbsp; if (duty_cycle == 8&#39;d255)&lt;br&gt;&amp;nbsp;&amp;nbsp;&amp;nbsp;&amp;nbsp;&amp;nbsp;&amp;nbsp;&amp;nbsp;&amp;nbsp;&amp;nbsp; pwm_out &amp;lt;= 1;&lt;br&gt;&amp;nbsp;&amp;nbsp;&amp;nbsp;&amp;nbsp;&amp;nbsp; else if (duty_cycle == 8&#39;b0)&lt;br&gt;&amp;nbsp;&amp;nbsp;&amp;nbsp;&amp;nbsp;&amp;nbsp;&amp;nbsp;&amp;nbsp;&amp;nbsp;&amp;nbsp; pwm_out &amp;lt;= 0;" style="rounded=0;whiteSpace=wrap;html=1;align=left;" parent="1" vertex="1">
          <mxGeometry x="350" y="135" width="255" height="230" as="geometry" />
        </mxCell>
        <mxCell id="fNxvs0sUdNlz_mXDDitk-6" value="" style="endArrow=classic;html=1;rounded=0;entryX=0;entryY=0.3;entryDx=0;entryDy=0;entryPerimeter=0;exitX=0.5;exitY=0;exitDx=0;exitDy=0;" parent="1" source="fNxvs0sUdNlz_mXDDitk-5" target="nNjAcnSjkrZPtuR4dmRM-2" edge="1">
          <mxGeometry width="50" height="50" relative="1" as="geometry">
            <mxPoint x="270" y="280" as="sourcePoint" />
            <mxPoint x="320" y="230" as="targetPoint" />
            <Array as="points">
              <mxPoint x="478" y="80" />
              <mxPoint x="160" y="80" />
            </Array>
          </mxGeometry>
        </mxCell>
        <mxCell id="fNxvs0sUdNlz_mXDDitk-7" value="" style="endArrow=none;html=1;rounded=0;" parent="1" edge="1">
          <mxGeometry width="50" height="50" relative="1" as="geometry">
            <mxPoint x="310" y="100" as="sourcePoint" />
            <mxPoint x="360" y="50" as="targetPoint" />
          </mxGeometry>
        </mxCell>
        <mxCell id="fNxvs0sUdNlz_mXDDitk-8" value="" style="endArrow=none;html=1;rounded=0;" parent="1" edge="1">
          <mxGeometry width="50" height="50" relative="1" as="geometry">
            <mxPoint x="270" y="270" as="sourcePoint" />
            <mxPoint x="320" y="220" as="targetPoint" />
          </mxGeometry>
        </mxCell>
        <mxCell id="fNxvs0sUdNlz_mXDDitk-9" value="8" style="text;html=1;align=center;verticalAlign=middle;resizable=0;points=[];autosize=1;strokeColor=none;fillColor=none;" parent="1" vertex="1">
          <mxGeometry x="315" y="75" width="30" height="30" as="geometry" />
        </mxCell>
        <mxCell id="fNxvs0sUdNlz_mXDDitk-10" value="1" style="text;html=1;align=center;verticalAlign=middle;resizable=0;points=[];autosize=1;strokeColor=none;fillColor=none;" parent="1" vertex="1">
          <mxGeometry x="305" y="55" width="30" height="30" as="geometry" />
        </mxCell>
        <mxCell id="fNxvs0sUdNlz_mXDDitk-11" value="1" style="text;html=1;align=center;verticalAlign=middle;resizable=0;points=[];autosize=1;strokeColor=none;fillColor=none;" parent="1" vertex="1">
          <mxGeometry x="275" y="225" width="30" height="30" as="geometry" />
        </mxCell>
        <mxCell id="fNxvs0sUdNlz_mXDDitk-12" value="8" style="text;html=1;align=center;verticalAlign=middle;resizable=0;points=[];autosize=1;strokeColor=none;fillColor=none;" parent="1" vertex="1">
          <mxGeometry x="285" y="250" width="30" height="30" as="geometry" />
        </mxCell>
      </root>
    </mxGraphModel>
  </diagram>
  <diagram id="DnlsfmPwEj_IjYFEv9Pq" name="Sample">
    <mxGraphModel dx="1360" dy="795" grid="1" gridSize="10" guides="1" tooltips="1" connect="1" arrows="1" fold="1" page="1" pageScale="1" pageWidth="850" pageHeight="1100" math="0" shadow="0">
      <root>
        <mxCell id="0" />
        <mxCell id="1" parent="0" />
        <mxCell id="kEynpFJMsKuWygii-FHi-1" value="sample" style="whiteSpace=wrap;html=1;aspect=fixed;" parent="1" vertex="1">
          <mxGeometry width="80" height="80" as="geometry" />
        </mxCell>
        <mxCell id="kEynpFJMsKuWygii-FHi-2" value="initial $readmemh(SAMPLE_FILE, audio_mem, 0, SAMPLE_LEN);" style="rounded=0;whiteSpace=wrap;html=1;" parent="1" vertex="1">
          <mxGeometry x="20" y="235" width="160" height="80" as="geometry" />
        </mxCell>
        <mxCell id="kEynpFJMsKuWygii-FHi-3" value="index&lt;br&gt;out" style="verticalLabelPosition=middle;shadow=0;dashed=0;align=center;html=1;verticalAlign=middle;shape=mxgraph.electrical.logic_gates.d_type_rs_flip-flop;labelPosition=center;" parent="1" vertex="1">
          <mxGeometry x="250" y="245" width="100" height="100" as="geometry" />
        </mxCell>
        <mxCell id="kEynpFJMsKuWygii-FHi-4" value="" style="endArrow=classic;html=1;rounded=0;" parent="1" edge="1">
          <mxGeometry width="50" height="50" relative="1" as="geometry">
            <mxPoint x="220" y="315" as="sourcePoint" />
            <mxPoint x="250" y="315" as="targetPoint" />
          </mxGeometry>
        </mxCell>
        <mxCell id="kEynpFJMsKuWygii-FHi-5" value="clk" style="text;html=1;align=center;verticalAlign=middle;resizable=0;points=[];autosize=1;strokeColor=none;fillColor=none;" parent="1" vertex="1">
          <mxGeometry x="180" y="300" width="40" height="30" as="geometry" />
        </mxCell>
        <mxCell id="kEynpFJMsKuWygii-FHi-6" value="" style="endArrow=classic;html=1;rounded=0;entryX=0.5;entryY=1;entryDx=0;entryDy=0;entryPerimeter=0;" parent="1" target="kEynpFJMsKuWygii-FHi-3" edge="1">
          <mxGeometry width="50" height="50" relative="1" as="geometry">
            <mxPoint x="300" y="365" as="sourcePoint" />
            <mxPoint x="260" y="325" as="targetPoint" />
          </mxGeometry>
        </mxCell>
        <mxCell id="kEynpFJMsKuWygii-FHi-7" value="rst" style="text;html=1;align=center;verticalAlign=middle;resizable=0;points=[];autosize=1;strokeColor=none;fillColor=none;" parent="1" vertex="1">
          <mxGeometry x="280" y="370" width="40" height="30" as="geometry" />
        </mxCell>
        <mxCell id="kEynpFJMsKuWygii-FHi-8" value="" style="endArrow=classic;html=1;rounded=0;entryX=0;entryY=0.5;entryDx=0;entryDy=0;" parent="1" target="kEynpFJMsKuWygii-FHi-13" edge="1">
          <mxGeometry width="50" height="50" relative="1" as="geometry">
            <mxPoint x="350" y="275" as="sourcePoint" />
            <mxPoint x="487.5999999999999" y="277.98" as="targetPoint" />
          </mxGeometry>
        </mxCell>
        <mxCell id="kEynpFJMsKuWygii-FHi-9" value="" style="endArrow=none;html=1;rounded=0;" parent="1" edge="1">
          <mxGeometry width="50" height="50" relative="1" as="geometry">
            <mxPoint x="350" y="295" as="sourcePoint" />
            <mxPoint x="400" y="245" as="targetPoint" />
          </mxGeometry>
        </mxCell>
        <mxCell id="kEynpFJMsKuWygii-FHi-10" value="12" style="text;html=1;align=center;verticalAlign=middle;resizable=0;points=[];autosize=1;strokeColor=none;fillColor=none;" parent="1" vertex="1">
          <mxGeometry x="340" y="240" width="40" height="30" as="geometry" />
        </mxCell>
        <mxCell id="kEynpFJMsKuWygii-FHi-11" value="8" style="text;html=1;align=center;verticalAlign=middle;resizable=0;points=[];autosize=1;strokeColor=none;fillColor=none;" parent="1" vertex="1">
          <mxGeometry x="370" y="270" width="30" height="30" as="geometry" />
        </mxCell>
        <mxCell id="kEynpFJMsKuWygii-FHi-12" value="" style="endArrow=classic;html=1;rounded=0;entryX=0;entryY=0.3;entryDx=0;entryDy=0;entryPerimeter=0;exitX=1;exitY=0.5;exitDx=0;exitDy=0;" parent="1" source="kEynpFJMsKuWygii-FHi-2" target="kEynpFJMsKuWygii-FHi-3" edge="1">
          <mxGeometry width="50" height="50" relative="1" as="geometry">
            <mxPoint x="200" y="330" as="sourcePoint" />
            <mxPoint x="250" y="280" as="targetPoint" />
          </mxGeometry>
        </mxCell>
        <mxCell id="kEynpFJMsKuWygii-FHi-13" value="if (rst)&lt;br&gt;&amp;nbsp; &amp;nbsp; &amp;nbsp; &amp;nbsp; index &amp;lt;= 0;&lt;br&gt;&amp;nbsp; &amp;nbsp; &amp;nbsp; &amp;nbsp; prev_en &amp;lt;= 0;&lt;br&gt;&amp;nbsp; &amp;nbsp; &amp;nbsp; &amp;nbsp; out &amp;lt;= 8&#39;b0;&lt;br&gt;else begin&lt;br&gt;&amp;nbsp; &amp;nbsp; &amp;nbsp; &amp;nbsp; out &amp;lt;= audio_mem[index];&lt;br&gt;&amp;nbsp; &amp;nbsp; &amp;nbsp; &amp;nbsp; prev_en &amp;lt;= enable;&lt;br&gt;&amp;nbsp; &amp;nbsp; &amp;nbsp; &amp;nbsp; if (prev_en &amp;amp;&amp;amp; enable) begin&lt;br&gt;&lt;span style=&quot;white-space: pre;&quot;&gt; &lt;/span&gt;&amp;nbsp; &amp;nbsp; &amp;nbsp; &amp;nbsp; index &amp;lt;= (index &amp;gt;= SAMPLE_LEN) ? 0 : index + 1;&amp;nbsp;&lt;br&gt;&amp;nbsp; &amp;nbsp; &amp;nbsp; &amp;nbsp; else if (prev_en &amp;amp;&amp;amp; ~enable)&lt;br&gt;&amp;nbsp; &amp;nbsp; &amp;nbsp; &amp;nbsp; &amp;nbsp; &amp;nbsp; index &amp;lt;= 0;&lt;br&gt;&amp;nbsp; &amp;nbsp; &amp;nbsp; &amp;nbsp; else&lt;br&gt;&amp;nbsp; &amp;nbsp; &amp;nbsp; &amp;nbsp; &amp;nbsp; &amp;nbsp; index &amp;lt;= index;" style="rounded=0;whiteSpace=wrap;html=1;align=left;" parent="1" vertex="1">
          <mxGeometry x="440" y="133.75" width="200" height="282.5" as="geometry" />
        </mxCell>
        <mxCell id="kEynpFJMsKuWygii-FHi-14" value="" style="endArrow=classic;html=1;rounded=0;entryX=0;entryY=0.3;entryDx=0;entryDy=0;entryPerimeter=0;exitX=0.5;exitY=0;exitDx=0;exitDy=0;" parent="1" source="kEynpFJMsKuWygii-FHi-13" target="kEynpFJMsKuWygii-FHi-3" edge="1">
          <mxGeometry width="50" height="50" relative="1" as="geometry">
            <mxPoint x="360" y="340" as="sourcePoint" />
            <mxPoint x="240" y="270" as="targetPoint" />
            <Array as="points">
              <mxPoint x="540" y="90" />
              <mxPoint x="250" y="90" />
            </Array>
          </mxGeometry>
        </mxCell>
        <mxCell id="kEynpFJMsKuWygii-FHi-15" value="" style="endArrow=none;html=1;rounded=0;" parent="1" edge="1">
          <mxGeometry width="50" height="50" relative="1" as="geometry">
            <mxPoint x="380" y="110" as="sourcePoint" />
            <mxPoint x="430" y="60" as="targetPoint" />
          </mxGeometry>
        </mxCell>
        <mxCell id="kEynpFJMsKuWygii-FHi-16" value="12" style="text;html=1;align=center;verticalAlign=middle;resizable=0;points=[];autosize=1;strokeColor=none;fillColor=none;" parent="1" vertex="1">
          <mxGeometry x="370" y="65" width="40" height="30" as="geometry" />
        </mxCell>
        <mxCell id="kEynpFJMsKuWygii-FHi-17" value="8" style="text;html=1;align=center;verticalAlign=middle;resizable=0;points=[];autosize=1;strokeColor=none;fillColor=none;" parent="1" vertex="1">
          <mxGeometry x="395" y="90" width="30" height="30" as="geometry" />
        </mxCell>
      </root>
    </mxGraphModel>
  </diagram>
  <diagram id="r0p61JPd3MwNQloYJeIE" name="Controller">
    <mxGraphModel dx="1360" dy="795" grid="1" gridSize="10" guides="1" tooltips="1" connect="1" arrows="1" fold="1" page="1" pageScale="1" pageWidth="850" pageHeight="1100" math="0" shadow="0">
      <root>
        <mxCell id="0" />
        <mxCell id="1" parent="0" />
        <mxCell id="h5LkYRDmUC5S99eLLtX6-1" value="controller" style="whiteSpace=wrap;html=1;aspect=fixed;" parent="1" vertex="1">
          <mxGeometry width="80" height="80" as="geometry" />
        </mxCell>
        <mxCell id="zV8BKg8rmmOxEAbpLxw4-1" value="mode" style="verticalLabelPosition=middle;shadow=0;dashed=0;align=center;html=1;verticalAlign=middle;shape=mxgraph.electrical.logic_gates.d_type_rs_flip-flop;labelPosition=center;" parent="1" vertex="1">
          <mxGeometry x="160" y="230" width="100" height="100" as="geometry" />
        </mxCell>
        <mxCell id="zV8BKg8rmmOxEAbpLxw4-2" value="" style="pointerEvents=1;verticalLabelPosition=bottom;shadow=0;dashed=0;align=center;html=1;verticalAlign=top;shape=mxgraph.electrical.signal_sources.signal_ground;rotation=-180;" parent="1" vertex="1">
          <mxGeometry x="187.5" y="200" width="45" height="30" as="geometry" />
        </mxCell>
        <mxCell id="zV8BKg8rmmOxEAbpLxw4-3" value="" style="endArrow=classic;html=1;rounded=0;" parent="1" edge="1">
          <mxGeometry width="50" height="50" relative="1" as="geometry">
            <mxPoint x="120" y="300" as="sourcePoint" />
            <mxPoint x="160" y="300" as="targetPoint" />
          </mxGeometry>
        </mxCell>
        <mxCell id="zV8BKg8rmmOxEAbpLxw4-4" value="clk" style="text;html=1;align=center;verticalAlign=middle;resizable=0;points=[];autosize=1;strokeColor=none;fillColor=none;" parent="1" vertex="1">
          <mxGeometry x="100" y="300" width="40" height="30" as="geometry" />
        </mxCell>
        <mxCell id="zV8BKg8rmmOxEAbpLxw4-5" value="" style="endArrow=classic;html=1;rounded=0;" parent="1" edge="1">
          <mxGeometry width="50" height="50" relative="1" as="geometry">
            <mxPoint x="210" y="350" as="sourcePoint" />
            <mxPoint x="210" y="330" as="targetPoint" />
          </mxGeometry>
        </mxCell>
        <mxCell id="zV8BKg8rmmOxEAbpLxw4-6" value="rst" style="text;html=1;align=center;verticalAlign=middle;resizable=0;points=[];autosize=1;strokeColor=none;fillColor=none;" parent="1" vertex="1">
          <mxGeometry x="190" y="345" width="40" height="30" as="geometry" />
        </mxCell>
        <mxCell id="zV8BKg8rmmOxEAbpLxw4-7" value="" style="endArrow=classic;html=1;rounded=0;exitX=1;exitY=0.3;exitDx=0;exitDy=0;exitPerimeter=0;entryX=0;entryY=0.5;entryDx=0;entryDy=0;" parent="1" source="zV8BKg8rmmOxEAbpLxw4-1" target="zV8BKg8rmmOxEAbpLxw4-8" edge="1">
          <mxGeometry width="50" height="50" relative="1" as="geometry">
            <mxPoint x="270" y="270" as="sourcePoint" />
            <mxPoint x="320" y="260" as="targetPoint" />
          </mxGeometry>
        </mxCell>
        <mxCell id="zV8BKg8rmmOxEAbpLxw4-8" value="if (rst)&lt;br&gt;&amp;nbsp; &amp;nbsp; &amp;nbsp; mode &amp;lt;= EDIT;&lt;br&gt;else if (set_edit == 1&#39;b1)&lt;br&gt;&amp;nbsp; &amp;nbsp; &amp;nbsp; mode &amp;lt;= EDIT;&lt;br&gt;else if (set_play == 1&#39;b1)&lt;br&gt;&amp;nbsp; &amp;nbsp; &amp;nbsp; mode &amp;lt;= PLAY;&lt;br&gt;else if (set_raw == 1&#39;b1) begin&lt;br&gt;&amp;nbsp; &amp;nbsp; &amp;nbsp; mode &amp;lt;= RAW;" style="rounded=0;whiteSpace=wrap;html=1;align=left;" parent="1" vertex="1">
          <mxGeometry x="320" y="195" width="160" height="130" as="geometry" />
        </mxCell>
        <mxCell id="zV8BKg8rmmOxEAbpLxw4-10" value="" style="endArrow=none;html=1;rounded=0;" parent="1" edge="1">
          <mxGeometry width="50" height="50" relative="1" as="geometry">
            <mxPoint x="500" y="280" as="sourcePoint" />
            <mxPoint x="550" y="230" as="targetPoint" />
          </mxGeometry>
        </mxCell>
        <mxCell id="zV8BKg8rmmOxEAbpLxw4-12" value="" style="endArrow=none;html=1;rounded=0;" parent="1" edge="1">
          <mxGeometry width="50" height="50" relative="1" as="geometry">
            <mxPoint x="260" y="285" as="sourcePoint" />
            <mxPoint x="310" y="235" as="targetPoint" />
          </mxGeometry>
        </mxCell>
        <mxCell id="zV8BKg8rmmOxEAbpLxw4-13" value="2" style="text;html=1;align=center;verticalAlign=middle;resizable=0;points=[];autosize=1;strokeColor=none;fillColor=none;" parent="1" vertex="1">
          <mxGeometry x="270" y="265" width="30" height="30" as="geometry" />
        </mxCell>
        <mxCell id="zV8BKg8rmmOxEAbpLxw4-14" value="2" style="text;html=1;align=center;verticalAlign=middle;resizable=0;points=[];autosize=1;strokeColor=none;fillColor=none;" parent="1" vertex="1">
          <mxGeometry x="510" y="260" width="30" height="30" as="geometry" />
        </mxCell>
        <mxCell id="zV8BKg8rmmOxEAbpLxw4-15" value="" style="endArrow=classic;html=1;rounded=0;" parent="1" edge="1">
          <mxGeometry width="50" height="50" relative="1" as="geometry">
            <mxPoint x="480" y="260" as="sourcePoint" />
            <mxPoint x="590" y="260" as="targetPoint" />
          </mxGeometry>
        </mxCell>
        <mxCell id="zV8BKg8rmmOxEAbpLxw4-16" value="" style="endArrow=classic;html=1;rounded=0;" parent="1" edge="1">
          <mxGeometry width="50" height="50" relative="1" as="geometry">
            <mxPoint x="90" y="260" as="sourcePoint" />
            <mxPoint x="160" y="260" as="targetPoint" />
          </mxGeometry>
        </mxCell>
        <mxCell id="zV8BKg8rmmOxEAbpLxw4-17" value="set_edit&lt;br&gt;set_play&lt;br&gt;set_raw" style="text;html=1;align=center;verticalAlign=middle;resizable=0;points=[];autosize=1;strokeColor=none;fillColor=none;" parent="1" vertex="1">
          <mxGeometry x="30" y="230" width="70" height="60" as="geometry" />
        </mxCell>
      </root>
    </mxGraphModel>
  </diagram>
</mxfile>
